M48
; DRILL file {KiCad 9.0.2} date 2025-07-08T15:37:35+0200
; FORMAT={-:-/ absolute / inch / decimal}
; #@! TF.CreationDate,2025-07-08T15:37:35+02:00
; #@! TF.GenerationSoftware,Kicad,Pcbnew,9.0.2
; #@! TF.FileFunction,Plated,1,2,PTH
FMAT,2
INCH
; #@! TA.AperFunction,Plated,PTH,ViaDrill
T1C0.0118
; #@! TA.AperFunction,Plated,PTH,ComponentDrill
T2C0.0315
; #@! TA.AperFunction,Plated,PTH,ComponentDrill
T3C0.0394
; #@! TA.AperFunction,Plated,PTH,ComponentDrill
T4C0.0590
; #@! TA.AperFunction,Plated,PTH,ComponentDrill
T5C0.0591
; #@! TA.AperFunction,Plated,PTH,ComponentDrill
T6C0.0654
; #@! TA.AperFunction,Plated,PTH,ComponentDrill
T7C0.0866
%
G90
G05
T1
X4.602Y-2.6354
X4.7358Y-2.8488
X4.7606Y-3.0748
X4.7976Y-2.5106
X4.9173Y-2.7
X4.9224Y-3.6437
X5.3315Y-2.6622
X5.4543Y-2.6323
X5.8618Y-3.076
X6.0992Y-2.3514
X6.1992Y-2.2487
X6.2598Y-3.2677
X6.3004Y-2.352
X6.3992Y-2.2211
X6.3992Y-2.9211
X6.4992Y-2.3514
X6.5988Y-2.3469
X7.0098Y-3.2677
X7.2114Y-2.3744
X7.2413Y-2.3492
X7.2413Y-2.3492
X7.6039Y-2.4472
X7.6992Y-2.4012
X7.7598Y-3.2677
X7.8992Y-2.3508
X7.9043Y-3.4055
X7.9992Y-2.2211
T2
X4.4835Y-2.9378
X4.4835Y-3.0953
X4.4835Y-3.174
X4.4835Y-3.2528
T3
X5.0413Y-2.4488
X5.0413Y-2.5488
X5.0413Y-2.9709
X5.0413Y-3.5417
X5.1398Y-2.9709
X5.1413Y-2.4488
X5.1413Y-2.5488
X5.2382Y-2.9709
X5.2382Y-3.5417
X5.2413Y-2.4488
X5.2413Y-2.5488
X5.3413Y-2.4488
X5.3413Y-2.5488
X5.7102Y-2.4217
X5.8102Y-2.4217
X5.9102Y-2.4217
T4
X6.1492Y-3.7913
X6.1992Y-3.8913
X6.3992Y-3.8913
X6.4492Y-3.7913
X6.8992Y-3.7913
X6.9492Y-3.8913
X7.1492Y-3.8913
X7.1992Y-3.7913
X7.6492Y-3.7913
X7.6992Y-3.8913
X7.8992Y-3.8913
X7.9492Y-3.7913
T6
X4.4835Y-2.8531
X4.4835Y-3.3374
T7
X4.5673Y-2.213
X4.5673Y-3.9846
X8.4256Y-2.213
X8.4256Y-3.9846
T5
G00X4.9193Y-3.2406
M15
G01X4.9193Y-3.2917
M16
G05
G00X5.3602Y-3.2406
M15
G01X5.3602Y-3.2917
M16
G05
M30
