%TF.GenerationSoftware,KiCad,Pcbnew,9.0.2*%
%TF.CreationDate,2025-07-08T15:37:37+02:00*%
%TF.ProjectId,MacroKeyPad,4d616372-6f4b-4657-9950-61642e6b6963,rev?*%
%TF.SameCoordinates,Original*%
%TF.FileFunction,Soldermask,Top*%
%TF.FilePolarity,Negative*%
%FSLAX46Y46*%
G04 Gerber Fmt 4.6, Leading zero omitted, Abs format (unit mm)*
G04 Created by KiCad (PCBNEW 9.0.2) date 2025-07-08 15:37:37*
%MOMM*%
%LPD*%
G01*
G04 APERTURE LIST*
G04 Aperture macros list*
%AMRoundRect*
0 Rectangle with rounded corners*
0 $1 Rounding radius*
0 $2 $3 $4 $5 $6 $7 $8 $9 X,Y pos of 4 corners*
0 Add a 4 corners polygon primitive as box body*
4,1,4,$2,$3,$4,$5,$6,$7,$8,$9,$2,$3,0*
0 Add four circle primitives for the rounded corners*
1,1,$1+$1,$2,$3*
1,1,$1+$1,$4,$5*
1,1,$1+$1,$6,$7*
1,1,$1+$1,$8,$9*
0 Add four rect primitives between the rounded corners*
20,1,$1+$1,$2,$3,$4,$5,0*
20,1,$1+$1,$4,$5,$6,$7,0*
20,1,$1+$1,$6,$7,$8,$9,0*
20,1,$1+$1,$8,$9,$2,$3,0*%
G04 Aperture macros list end*
%ADD10C,0.010000*%
%ADD11C,2.490000*%
%ADD12C,1.300000*%
%ADD13R,1.300000X1.300000*%
%ADD14RoundRect,0.250000X0.350000X0.450000X-0.350000X0.450000X-0.350000X-0.450000X0.350000X-0.450000X0*%
%ADD15RoundRect,0.250000X-0.350000X-0.450000X0.350000X-0.450000X0.350000X0.450000X-0.350000X0.450000X0*%
%ADD16RoundRect,0.250000X0.450000X-0.350000X0.450000X0.350000X-0.450000X0.350000X-0.450000X-0.350000X0*%
%ADD17RoundRect,0.250000X0.600000X-0.600000X0.600000X0.600000X-0.600000X0.600000X-0.600000X-0.600000X0*%
%ADD18C,1.700000*%
%ADD19C,1.498600*%
%ADD20C,3.987800*%
%ADD21C,2.200000*%
%ADD22RoundRect,0.102000X0.900000X0.410000X-0.900000X0.410000X-0.900000X-0.410000X0.900000X-0.410000X0*%
%ADD23C,2.500000*%
%ADD24C,2.600000*%
%ADD25C,4.400000*%
%ADD26RoundRect,0.102000X0.410000X-0.900000X0.410000X0.900000X-0.410000X0.900000X-0.410000X-0.900000X0*%
%ADD27R,1.700000X1.700000*%
%ADD28O,1.700000X1.700000*%
%ADD29R,2.000000X2.000000*%
%ADD30C,2.000000*%
%ADD31R,2.000000X3.200000*%
%ADD32R,1.000000X2.510000*%
G04 APERTURE END LIST*
D10*
%TO.C,REF\u002A\u002A*%
X145399878Y-96075622D02*
X145505612Y-96076201D01*
X145582132Y-96077768D01*
X145634372Y-96080818D01*
X145667263Y-96085842D01*
X145685737Y-96093335D01*
X145694727Y-96103790D01*
X145699163Y-96117699D01*
X145699594Y-96119500D01*
X145706333Y-96151991D01*
X145718808Y-96216098D01*
X145735719Y-96304997D01*
X145755771Y-96411865D01*
X145777664Y-96529879D01*
X145778429Y-96534024D01*
X145800359Y-96649677D01*
X145820877Y-96751860D01*
X145838659Y-96834444D01*
X145852381Y-96891302D01*
X145860718Y-96916304D01*
X145861116Y-96916747D01*
X145885677Y-96928956D01*
X145936315Y-96949302D01*
X146002095Y-96973391D01*
X146002461Y-96973520D01*
X146085317Y-97004664D01*
X146183000Y-97044337D01*
X146275077Y-97084227D01*
X146279434Y-97086199D01*
X146429407Y-97154266D01*
X146761498Y-96927485D01*
X146863374Y-96858350D01*
X146955657Y-96796543D01*
X147033003Y-96745579D01*
X147090064Y-96708973D01*
X147121495Y-96690240D01*
X147124479Y-96688850D01*
X147147321Y-96695036D01*
X147189982Y-96724881D01*
X147254128Y-96779793D01*
X147341421Y-96861180D01*
X147430535Y-96947768D01*
X147516441Y-97033093D01*
X147593327Y-97110954D01*
X147656564Y-97176543D01*
X147701523Y-97225051D01*
X147723576Y-97251671D01*
X147724396Y-97253041D01*
X147726834Y-97271309D01*
X147717650Y-97301141D01*
X147694574Y-97346567D01*
X147655337Y-97411616D01*
X147597670Y-97500316D01*
X147520795Y-97614503D01*
X147452570Y-97715008D01*
X147391582Y-97805149D01*
X147341356Y-97879695D01*
X147305416Y-97933411D01*
X147287287Y-97961064D01*
X147286146Y-97962941D01*
X147288359Y-97989436D01*
X147305138Y-98040932D01*
X147333142Y-98107697D01*
X147343122Y-98129018D01*
X147386672Y-98224005D01*
X147433134Y-98331783D01*
X147470877Y-98425038D01*
X147498073Y-98494252D01*
X147519675Y-98546852D01*
X147532158Y-98574343D01*
X147533709Y-98576462D01*
X147556668Y-98579970D01*
X147610786Y-98589584D01*
X147688868Y-98603935D01*
X147783719Y-98621653D01*
X147888143Y-98641371D01*
X147994944Y-98661720D01*
X148096926Y-98681332D01*
X148186894Y-98698837D01*
X148257653Y-98712868D01*
X148302006Y-98722055D01*
X148312885Y-98724653D01*
X148324122Y-98731064D01*
X148332605Y-98745543D01*
X148338714Y-98772979D01*
X148342832Y-98818257D01*
X148345341Y-98886266D01*
X148346621Y-98981893D01*
X148347054Y-99110026D01*
X148347077Y-99162547D01*
X148347077Y-99589691D01*
X148244500Y-99609937D01*
X148187431Y-99620916D01*
X148102269Y-99636941D01*
X147999372Y-99656079D01*
X147889096Y-99676397D01*
X147858615Y-99681978D01*
X147756855Y-99701763D01*
X147668205Y-99721219D01*
X147600108Y-99738543D01*
X147560004Y-99751934D01*
X147553323Y-99755925D01*
X147536919Y-99784188D01*
X147513399Y-99838955D01*
X147487316Y-99909434D01*
X147482142Y-99924615D01*
X147447956Y-100018742D01*
X147405523Y-100124947D01*
X147363997Y-100220319D01*
X147363792Y-100220762D01*
X147294640Y-100370371D01*
X147749512Y-101039463D01*
X147457500Y-101331962D01*
X147369180Y-101419016D01*
X147288625Y-101495755D01*
X147220360Y-101558083D01*
X147168908Y-101601902D01*
X147138794Y-101623116D01*
X147134474Y-101624462D01*
X147109111Y-101613862D01*
X147057358Y-101584393D01*
X146984868Y-101539551D01*
X146897294Y-101482830D01*
X146802612Y-101419308D01*
X146706516Y-101354514D01*
X146620837Y-101298133D01*
X146551016Y-101253634D01*
X146502494Y-101224485D01*
X146480782Y-101214154D01*
X146454293Y-101222896D01*
X146404062Y-101245933D01*
X146340451Y-101278477D01*
X146333708Y-101282095D01*
X146248046Y-101325056D01*
X146189306Y-101346125D01*
X146152772Y-101346349D01*
X146133731Y-101326774D01*
X146133620Y-101326500D01*
X146124102Y-101303318D01*
X146101403Y-101248287D01*
X146067282Y-101165668D01*
X146023500Y-101059718D01*
X145971816Y-100934698D01*
X145913992Y-100794866D01*
X145857991Y-100659483D01*
X145796447Y-100510080D01*
X145739939Y-100371678D01*
X145690161Y-100248519D01*
X145648806Y-100144848D01*
X145617568Y-100064905D01*
X145598141Y-100012934D01*
X145592154Y-99993538D01*
X145607168Y-99971289D01*
X145646439Y-99935828D01*
X145698807Y-99896733D01*
X145847941Y-99773091D01*
X145964511Y-99631368D01*
X146047118Y-99474550D01*
X146094366Y-99305621D01*
X146104857Y-99127568D01*
X146097231Y-99045385D01*
X146055682Y-98874877D01*
X145984123Y-98724305D01*
X145886995Y-98595155D01*
X145768734Y-98488910D01*
X145633780Y-98407056D01*
X145486571Y-98351078D01*
X145331544Y-98322461D01*
X145173139Y-98322690D01*
X145015794Y-98353251D01*
X144863946Y-98415628D01*
X144722035Y-98511306D01*
X144662803Y-98565418D01*
X144549203Y-98704366D01*
X144470106Y-98856207D01*
X144424986Y-99016513D01*
X144413316Y-99180858D01*
X144434569Y-99344817D01*
X144488220Y-99503964D01*
X144573740Y-99653871D01*
X144690605Y-99790113D01*
X144821193Y-99896733D01*
X144875588Y-99937488D01*
X144914014Y-99972564D01*
X144927846Y-99993572D01*
X144920603Y-100016481D01*
X144900005Y-100071211D01*
X144867746Y-100153518D01*
X144825521Y-100259161D01*
X144775023Y-100383896D01*
X144717948Y-100523482D01*
X144661854Y-100659516D01*
X144599967Y-100809047D01*
X144542644Y-100947613D01*
X144491644Y-101070953D01*
X144448727Y-101174810D01*
X144415653Y-101254926D01*
X144394181Y-101307041D01*
X144386225Y-101326500D01*
X144367429Y-101346269D01*
X144331074Y-101346211D01*
X144272479Y-101325287D01*
X144186968Y-101282459D01*
X144186292Y-101282095D01*
X144121907Y-101248858D01*
X144069861Y-101224648D01*
X144040512Y-101214250D01*
X144039217Y-101214154D01*
X144017124Y-101224701D01*
X143968348Y-101254030D01*
X143898331Y-101298673D01*
X143812514Y-101355160D01*
X143717388Y-101419308D01*
X143620540Y-101484257D01*
X143533253Y-101540742D01*
X143461181Y-101585267D01*
X143409977Y-101614336D01*
X143385526Y-101624462D01*
X143363010Y-101611153D01*
X143317742Y-101573958D01*
X143254244Y-101516974D01*
X143177039Y-101444295D01*
X143090651Y-101360017D01*
X143062399Y-101331862D01*
X142770287Y-101039262D01*
X142992631Y-100712950D01*
X143060202Y-100612743D01*
X143119507Y-100522809D01*
X143167217Y-100448356D01*
X143200007Y-100394597D01*
X143214548Y-100366740D01*
X143214974Y-100364758D01*
X143207308Y-100338501D01*
X143186689Y-100285683D01*
X143156685Y-100215156D01*
X143135625Y-100167939D01*
X143096248Y-100077540D01*
X143059165Y-99986212D01*
X143030415Y-99909046D01*
X143022605Y-99885538D01*
X143000417Y-99822762D01*
X142978727Y-99774257D01*
X142966813Y-99755925D01*
X142940523Y-99744705D01*
X142883142Y-99728800D01*
X142802118Y-99710013D01*
X142704895Y-99690145D01*
X142661385Y-99681978D01*
X142550896Y-99661675D01*
X142444916Y-99642016D01*
X142353801Y-99624934D01*
X142287908Y-99612364D01*
X142275500Y-99609937D01*
X142172923Y-99589691D01*
X142172923Y-99162547D01*
X142173153Y-99022092D01*
X142174099Y-98915825D01*
X142176141Y-98838859D01*
X142179662Y-98786306D01*
X142185043Y-98753279D01*
X142192666Y-98734891D01*
X142202912Y-98726254D01*
X142207115Y-98724653D01*
X142232470Y-98718973D01*
X142288484Y-98707641D01*
X142367964Y-98692025D01*
X142463712Y-98673493D01*
X142568533Y-98653415D01*
X142675232Y-98633158D01*
X142776613Y-98614092D01*
X142865479Y-98597585D01*
X142934637Y-98585005D01*
X142976889Y-98577721D01*
X142986290Y-98576462D01*
X142994807Y-98559609D01*
X143013660Y-98514716D01*
X143039324Y-98450276D01*
X143049123Y-98425038D01*
X143088648Y-98327532D01*
X143135192Y-98219805D01*
X143176877Y-98129018D01*
X143207550Y-98059599D01*
X143227956Y-98002556D01*
X143234768Y-97967623D01*
X143233682Y-97962941D01*
X143219285Y-97940837D01*
X143186412Y-97891677D01*
X143138590Y-97820694D01*
X143079348Y-97733124D01*
X143012215Y-97634203D01*
X142998941Y-97614676D01*
X142921046Y-97498986D01*
X142863787Y-97410890D01*
X142824881Y-97346332D01*
X142802044Y-97301257D01*
X142792994Y-97271609D01*
X142795448Y-97253331D01*
X142795511Y-97253215D01*
X142814827Y-97229207D01*
X142857551Y-97182793D01*
X142919051Y-97118783D01*
X142994698Y-97041991D01*
X143079861Y-96957228D01*
X143089465Y-96947768D01*
X143196790Y-96843835D01*
X143279615Y-96767521D01*
X143339605Y-96717417D01*
X143378423Y-96692116D01*
X143395520Y-96688850D01*
X143420473Y-96703096D01*
X143472255Y-96736002D01*
X143545520Y-96784054D01*
X143634920Y-96843736D01*
X143735111Y-96911534D01*
X143758501Y-96927485D01*
X144090593Y-97154266D01*
X144240565Y-97086199D01*
X144331770Y-97046531D01*
X144429669Y-97006637D01*
X144513831Y-96974829D01*
X144517538Y-96973520D01*
X144583369Y-96949422D01*
X144634116Y-96929046D01*
X144658842Y-96916782D01*
X144658884Y-96916747D01*
X144666729Y-96894580D01*
X144680066Y-96840063D01*
X144697570Y-96759326D01*
X144717917Y-96658496D01*
X144739782Y-96543702D01*
X144741571Y-96534024D01*
X144763504Y-96415750D01*
X144783640Y-96308388D01*
X144800680Y-96218763D01*
X144813328Y-96153697D01*
X144820284Y-96120014D01*
X144820406Y-96119500D01*
X144824639Y-96105171D01*
X144832871Y-96094353D01*
X144850033Y-96086552D01*
X144881058Y-96081275D01*
X144930878Y-96078028D01*
X145004424Y-96076318D01*
X145106629Y-96075653D01*
X145242425Y-96075539D01*
X145260000Y-96075538D01*
X145399878Y-96075622D01*
G36*
X145399878Y-96075622D02*
G01*
X145505612Y-96076201D01*
X145582132Y-96077768D01*
X145634372Y-96080818D01*
X145667263Y-96085842D01*
X145685737Y-96093335D01*
X145694727Y-96103790D01*
X145699163Y-96117699D01*
X145699594Y-96119500D01*
X145706333Y-96151991D01*
X145718808Y-96216098D01*
X145735719Y-96304997D01*
X145755771Y-96411865D01*
X145777664Y-96529879D01*
X145778429Y-96534024D01*
X145800359Y-96649677D01*
X145820877Y-96751860D01*
X145838659Y-96834444D01*
X145852381Y-96891302D01*
X145860718Y-96916304D01*
X145861116Y-96916747D01*
X145885677Y-96928956D01*
X145936315Y-96949302D01*
X146002095Y-96973391D01*
X146002461Y-96973520D01*
X146085317Y-97004664D01*
X146183000Y-97044337D01*
X146275077Y-97084227D01*
X146279434Y-97086199D01*
X146429407Y-97154266D01*
X146761498Y-96927485D01*
X146863374Y-96858350D01*
X146955657Y-96796543D01*
X147033003Y-96745579D01*
X147090064Y-96708973D01*
X147121495Y-96690240D01*
X147124479Y-96688850D01*
X147147321Y-96695036D01*
X147189982Y-96724881D01*
X147254128Y-96779793D01*
X147341421Y-96861180D01*
X147430535Y-96947768D01*
X147516441Y-97033093D01*
X147593327Y-97110954D01*
X147656564Y-97176543D01*
X147701523Y-97225051D01*
X147723576Y-97251671D01*
X147724396Y-97253041D01*
X147726834Y-97271309D01*
X147717650Y-97301141D01*
X147694574Y-97346567D01*
X147655337Y-97411616D01*
X147597670Y-97500316D01*
X147520795Y-97614503D01*
X147452570Y-97715008D01*
X147391582Y-97805149D01*
X147341356Y-97879695D01*
X147305416Y-97933411D01*
X147287287Y-97961064D01*
X147286146Y-97962941D01*
X147288359Y-97989436D01*
X147305138Y-98040932D01*
X147333142Y-98107697D01*
X147343122Y-98129018D01*
X147386672Y-98224005D01*
X147433134Y-98331783D01*
X147470877Y-98425038D01*
X147498073Y-98494252D01*
X147519675Y-98546852D01*
X147532158Y-98574343D01*
X147533709Y-98576462D01*
X147556668Y-98579970D01*
X147610786Y-98589584D01*
X147688868Y-98603935D01*
X147783719Y-98621653D01*
X147888143Y-98641371D01*
X147994944Y-98661720D01*
X148096926Y-98681332D01*
X148186894Y-98698837D01*
X148257653Y-98712868D01*
X148302006Y-98722055D01*
X148312885Y-98724653D01*
X148324122Y-98731064D01*
X148332605Y-98745543D01*
X148338714Y-98772979D01*
X148342832Y-98818257D01*
X148345341Y-98886266D01*
X148346621Y-98981893D01*
X148347054Y-99110026D01*
X148347077Y-99162547D01*
X148347077Y-99589691D01*
X148244500Y-99609937D01*
X148187431Y-99620916D01*
X148102269Y-99636941D01*
X147999372Y-99656079D01*
X147889096Y-99676397D01*
X147858615Y-99681978D01*
X147756855Y-99701763D01*
X147668205Y-99721219D01*
X147600108Y-99738543D01*
X147560004Y-99751934D01*
X147553323Y-99755925D01*
X147536919Y-99784188D01*
X147513399Y-99838955D01*
X147487316Y-99909434D01*
X147482142Y-99924615D01*
X147447956Y-100018742D01*
X147405523Y-100124947D01*
X147363997Y-100220319D01*
X147363792Y-100220762D01*
X147294640Y-100370371D01*
X147749512Y-101039463D01*
X147457500Y-101331962D01*
X147369180Y-101419016D01*
X147288625Y-101495755D01*
X147220360Y-101558083D01*
X147168908Y-101601902D01*
X147138794Y-101623116D01*
X147134474Y-101624462D01*
X147109111Y-101613862D01*
X147057358Y-101584393D01*
X146984868Y-101539551D01*
X146897294Y-101482830D01*
X146802612Y-101419308D01*
X146706516Y-101354514D01*
X146620837Y-101298133D01*
X146551016Y-101253634D01*
X146502494Y-101224485D01*
X146480782Y-101214154D01*
X146454293Y-101222896D01*
X146404062Y-101245933D01*
X146340451Y-101278477D01*
X146333708Y-101282095D01*
X146248046Y-101325056D01*
X146189306Y-101346125D01*
X146152772Y-101346349D01*
X146133731Y-101326774D01*
X146133620Y-101326500D01*
X146124102Y-101303318D01*
X146101403Y-101248287D01*
X146067282Y-101165668D01*
X146023500Y-101059718D01*
X145971816Y-100934698D01*
X145913992Y-100794866D01*
X145857991Y-100659483D01*
X145796447Y-100510080D01*
X145739939Y-100371678D01*
X145690161Y-100248519D01*
X145648806Y-100144848D01*
X145617568Y-100064905D01*
X145598141Y-100012934D01*
X145592154Y-99993538D01*
X145607168Y-99971289D01*
X145646439Y-99935828D01*
X145698807Y-99896733D01*
X145847941Y-99773091D01*
X145964511Y-99631368D01*
X146047118Y-99474550D01*
X146094366Y-99305621D01*
X146104857Y-99127568D01*
X146097231Y-99045385D01*
X146055682Y-98874877D01*
X145984123Y-98724305D01*
X145886995Y-98595155D01*
X145768734Y-98488910D01*
X145633780Y-98407056D01*
X145486571Y-98351078D01*
X145331544Y-98322461D01*
X145173139Y-98322690D01*
X145015794Y-98353251D01*
X144863946Y-98415628D01*
X144722035Y-98511306D01*
X144662803Y-98565418D01*
X144549203Y-98704366D01*
X144470106Y-98856207D01*
X144424986Y-99016513D01*
X144413316Y-99180858D01*
X144434569Y-99344817D01*
X144488220Y-99503964D01*
X144573740Y-99653871D01*
X144690605Y-99790113D01*
X144821193Y-99896733D01*
X144875588Y-99937488D01*
X144914014Y-99972564D01*
X144927846Y-99993572D01*
X144920603Y-100016481D01*
X144900005Y-100071211D01*
X144867746Y-100153518D01*
X144825521Y-100259161D01*
X144775023Y-100383896D01*
X144717948Y-100523482D01*
X144661854Y-100659516D01*
X144599967Y-100809047D01*
X144542644Y-100947613D01*
X144491644Y-101070953D01*
X144448727Y-101174810D01*
X144415653Y-101254926D01*
X144394181Y-101307041D01*
X144386225Y-101326500D01*
X144367429Y-101346269D01*
X144331074Y-101346211D01*
X144272479Y-101325287D01*
X144186968Y-101282459D01*
X144186292Y-101282095D01*
X144121907Y-101248858D01*
X144069861Y-101224648D01*
X144040512Y-101214250D01*
X144039217Y-101214154D01*
X144017124Y-101224701D01*
X143968348Y-101254030D01*
X143898331Y-101298673D01*
X143812514Y-101355160D01*
X143717388Y-101419308D01*
X143620540Y-101484257D01*
X143533253Y-101540742D01*
X143461181Y-101585267D01*
X143409977Y-101614336D01*
X143385526Y-101624462D01*
X143363010Y-101611153D01*
X143317742Y-101573958D01*
X143254244Y-101516974D01*
X143177039Y-101444295D01*
X143090651Y-101360017D01*
X143062399Y-101331862D01*
X142770287Y-101039262D01*
X142992631Y-100712950D01*
X143060202Y-100612743D01*
X143119507Y-100522809D01*
X143167217Y-100448356D01*
X143200007Y-100394597D01*
X143214548Y-100366740D01*
X143214974Y-100364758D01*
X143207308Y-100338501D01*
X143186689Y-100285683D01*
X143156685Y-100215156D01*
X143135625Y-100167939D01*
X143096248Y-100077540D01*
X143059165Y-99986212D01*
X143030415Y-99909046D01*
X143022605Y-99885538D01*
X143000417Y-99822762D01*
X142978727Y-99774257D01*
X142966813Y-99755925D01*
X142940523Y-99744705D01*
X142883142Y-99728800D01*
X142802118Y-99710013D01*
X142704895Y-99690145D01*
X142661385Y-99681978D01*
X142550896Y-99661675D01*
X142444916Y-99642016D01*
X142353801Y-99624934D01*
X142287908Y-99612364D01*
X142275500Y-99609937D01*
X142172923Y-99589691D01*
X142172923Y-99162547D01*
X142173153Y-99022092D01*
X142174099Y-98915825D01*
X142176141Y-98838859D01*
X142179662Y-98786306D01*
X142185043Y-98753279D01*
X142192666Y-98734891D01*
X142202912Y-98726254D01*
X142207115Y-98724653D01*
X142232470Y-98718973D01*
X142288484Y-98707641D01*
X142367964Y-98692025D01*
X142463712Y-98673493D01*
X142568533Y-98653415D01*
X142675232Y-98633158D01*
X142776613Y-98614092D01*
X142865479Y-98597585D01*
X142934637Y-98585005D01*
X142976889Y-98577721D01*
X142986290Y-98576462D01*
X142994807Y-98559609D01*
X143013660Y-98514716D01*
X143039324Y-98450276D01*
X143049123Y-98425038D01*
X143088648Y-98327532D01*
X143135192Y-98219805D01*
X143176877Y-98129018D01*
X143207550Y-98059599D01*
X143227956Y-98002556D01*
X143234768Y-97967623D01*
X143233682Y-97962941D01*
X143219285Y-97940837D01*
X143186412Y-97891677D01*
X143138590Y-97820694D01*
X143079348Y-97733124D01*
X143012215Y-97634203D01*
X142998941Y-97614676D01*
X142921046Y-97498986D01*
X142863787Y-97410890D01*
X142824881Y-97346332D01*
X142802044Y-97301257D01*
X142792994Y-97271609D01*
X142795448Y-97253331D01*
X142795511Y-97253215D01*
X142814827Y-97229207D01*
X142857551Y-97182793D01*
X142919051Y-97118783D01*
X142994698Y-97041991D01*
X143079861Y-96957228D01*
X143089465Y-96947768D01*
X143196790Y-96843835D01*
X143279615Y-96767521D01*
X143339605Y-96717417D01*
X143378423Y-96692116D01*
X143395520Y-96688850D01*
X143420473Y-96703096D01*
X143472255Y-96736002D01*
X143545520Y-96784054D01*
X143634920Y-96843736D01*
X143735111Y-96911534D01*
X143758501Y-96927485D01*
X144090593Y-97154266D01*
X144240565Y-97086199D01*
X144331770Y-97046531D01*
X144429669Y-97006637D01*
X144513831Y-96974829D01*
X144517538Y-96973520D01*
X144583369Y-96949422D01*
X144634116Y-96929046D01*
X144658842Y-96916782D01*
X144658884Y-96916747D01*
X144666729Y-96894580D01*
X144680066Y-96840063D01*
X144697570Y-96759326D01*
X144717917Y-96658496D01*
X144739782Y-96543702D01*
X144741571Y-96534024D01*
X144763504Y-96415750D01*
X144783640Y-96308388D01*
X144800680Y-96218763D01*
X144813328Y-96153697D01*
X144820284Y-96120014D01*
X144820406Y-96119500D01*
X144824639Y-96105171D01*
X144832871Y-96094353D01*
X144850033Y-96086552D01*
X144881058Y-96081275D01*
X144930878Y-96078028D01*
X145004424Y-96076318D01*
X145106629Y-96075653D01*
X145242425Y-96075539D01*
X145260000Y-96075538D01*
X145399878Y-96075622D01*
G37*
%TD*%
D11*
%TO.C,J3*%
X113880000Y-84770000D03*
X113880000Y-72470000D03*
D12*
X113880000Y-82620000D03*
X113880000Y-80620000D03*
X113880000Y-78620000D03*
D13*
X113880000Y-74620000D03*
%TD*%
D14*
%TO.C,R4*%
X180050000Y-83000000D03*
X178050000Y-83000000D03*
%TD*%
%TO.C,R5*%
X199100000Y-83000000D03*
X197100000Y-83000000D03*
%TD*%
D15*
%TO.C,R2*%
X124110000Y-71660000D03*
X126110000Y-71660000D03*
%TD*%
D16*
%TO.C,R7*%
X118120000Y-72360000D03*
X118120000Y-70360000D03*
%TD*%
D17*
%TO.C,J1*%
X128050000Y-64740500D03*
D18*
X128050000Y-62200500D03*
X130590000Y-64740500D03*
X130590000Y-62200500D03*
X133130000Y-64740500D03*
X133130000Y-62200500D03*
X135670000Y-64740500D03*
X135670000Y-62200500D03*
%TD*%
D19*
%TO.C,SW3*%
X184130000Y-93760000D03*
D20*
X179050000Y-93760000D03*
D19*
X173970000Y-93760000D03*
D21*
X182860000Y-96300000D03*
X175240000Y-96300000D03*
X181590000Y-98840000D03*
X176510000Y-98840000D03*
D22*
X181650000Y-89510000D03*
X181650000Y-88010000D03*
X176450000Y-88010000D03*
X176450000Y-89510000D03*
%TD*%
D23*
%TO.C,REF\u002A\u002A*%
X96010000Y-56210000D03*
X96010000Y-56210000D03*
%TD*%
D19*
%TO.C,SW1*%
X165080000Y-93760000D03*
D20*
X160000000Y-93760000D03*
D19*
X154920000Y-93760000D03*
D21*
X163810000Y-96300000D03*
X156190000Y-96300000D03*
X162540000Y-98840000D03*
X157460000Y-98840000D03*
D22*
X162600000Y-89510000D03*
X162600000Y-88010000D03*
X157400000Y-88010000D03*
X157400000Y-89510000D03*
%TD*%
D14*
%TO.C,R8*%
X137460000Y-69220000D03*
X135460000Y-69220000D03*
%TD*%
D16*
%TO.C,R6*%
X120290000Y-72360000D03*
X120290000Y-70360000D03*
%TD*%
D23*
%TO.C,REF\u002A\u002A*%
X234010000Y-101210000D03*
X234010000Y-101310000D03*
%TD*%
D24*
%TO.C,REF\u002A\u002A*%
X214010000Y-56210000D03*
D25*
X214010000Y-56210000D03*
%TD*%
D26*
%TO.C,D2*%
X116890000Y-61750000D03*
X115390000Y-61750000D03*
X115390000Y-66950000D03*
X116890000Y-66950000D03*
%TD*%
D27*
%TO.C,J2*%
X145040000Y-61510000D03*
D28*
X147580000Y-61510000D03*
X150120000Y-61510000D03*
%TD*%
D24*
%TO.C,REF\u002A\u002A*%
X116010000Y-56210000D03*
D25*
X116010000Y-56210000D03*
%TD*%
D24*
%TO.C,REF\u002A\u002A*%
X214010000Y-101210000D03*
D25*
X214010000Y-101210000D03*
%TD*%
D14*
%TO.C,R3*%
X137460000Y-72220000D03*
X135460000Y-72220000D03*
%TD*%
D24*
%TO.C,REF\u002A\u002A*%
X116010000Y-101210000D03*
D25*
X116010000Y-101210000D03*
%TD*%
D29*
%TO.C,SW2*%
X133050000Y-75460000D03*
D30*
X128050000Y-75460000D03*
X130550000Y-75460000D03*
D31*
X136150000Y-82960000D03*
X124950000Y-82960000D03*
D30*
X128050000Y-89960000D03*
X133050000Y-89960000D03*
%TD*%
D23*
%TO.C,REF\u002A\u002A*%
X96000000Y-101210000D03*
X96000000Y-101210000D03*
%TD*%
%TO.C,REF\u002A\u002A*%
X234010000Y-56110000D03*
X234010000Y-56210000D03*
%TD*%
D14*
%TO.C,R1*%
X161000000Y-83000000D03*
X159000000Y-83000000D03*
%TD*%
D32*
%TO.C,U1*%
X203180000Y-56415000D03*
X200640000Y-59725000D03*
X198100000Y-56415000D03*
X195560000Y-59725000D03*
X193020000Y-56415000D03*
X190480000Y-59725000D03*
X187940000Y-56415000D03*
X185400000Y-59725000D03*
X182860000Y-56415000D03*
X180320000Y-59725000D03*
X177780000Y-56415000D03*
X175240000Y-59725000D03*
X172700000Y-56415000D03*
X170160000Y-59725000D03*
X167620000Y-56415000D03*
X165080000Y-59725000D03*
X162540000Y-56415000D03*
X160000000Y-59725000D03*
X157460000Y-56415000D03*
X154920000Y-59725000D03*
X154920000Y-77505000D03*
X157460000Y-74195000D03*
X160000000Y-77505000D03*
X162540000Y-74195000D03*
X165080000Y-77505000D03*
X167620000Y-74195000D03*
X170160000Y-77505000D03*
X172700000Y-74195000D03*
X175240000Y-77505000D03*
X177780000Y-74195000D03*
X180320000Y-77505000D03*
X182860000Y-74195000D03*
X185400000Y-77505000D03*
X187940000Y-74195000D03*
X190480000Y-77505000D03*
X193020000Y-74195000D03*
X195560000Y-77505000D03*
X198100000Y-74195000D03*
X200640000Y-77505000D03*
X203180000Y-74195000D03*
%TD*%
D19*
%TO.C,SW4*%
X203180000Y-93760000D03*
D20*
X198100000Y-93760000D03*
D19*
X193020000Y-93760000D03*
D21*
X201910000Y-96300000D03*
X194290000Y-96300000D03*
X200640000Y-98840000D03*
X195560000Y-98840000D03*
D22*
X200700000Y-89510000D03*
X200700000Y-88010000D03*
X195500000Y-88010000D03*
X195500000Y-89510000D03*
%TD*%
M02*
